<?xml version="1.0" encoding="UTF-8"?>
<!DOCTYPE svg PUBLIC "-//W3C//DTD SVG 1.1//EN" "http://www.w3.org/Graphics/SVG/1.1/DTD/svg11.dtd">
<svg xmlns="http://www.w3.org/2000/svg" version="1.1" width="400px" height="400px" style="shape-rendering:geometricPrecision; text-rendering:geometricPrecision; image-rendering:optimizeQuality; fill-rule:evenodd; clip-rule:evenodd" xmlns:xlink="http://www.w3.org/1999/xlink">
<g><path style="opacity:1" fill="#000000" d="M -0.5,-0.5 C 132.833,-0.5 266.167,-0.5 399.5,-0.5C 399.5,132.833 399.5,266.167 399.5,399.5C 266.167,399.5 132.833,399.5 -0.5,399.5C -0.5,266.167 -0.5,132.833 -0.5,-0.5 Z"/></g>
<g><path style="opacity:1" fill="#6f6f6f" d="M 239.5,76.5 C 212.833,76.5 186.167,76.5 159.5,76.5C 172.316,75.1675 185.483,74.5008 199,74.5C 212.167,74.6667 225.333,74.8333 238.5,75C 239.056,75.3826 239.389,75.8826 239.5,76.5 Z"/></g>
<g><path style="opacity:1" fill="#e4e4e4" d="M 159.5,76.5 C 186.167,76.5 212.833,76.5 239.5,76.5C 280.915,117.85 321.915,158.85 362.5,199.5C 321.5,240.833 280.5,282.167 239.5,323.5C 212.833,324.833 186.167,324.833 159.5,323.5C 118.5,282.167 77.5,240.833 36.5,199.5C 77.1877,158.146 118.188,117.146 159.5,76.5 Z"/></g>
<g><path style="opacity:1" fill="#090909" d="M 167.5,80.5 C 188.663,79.3373 209.996,79.1706 231.5,80C 220.986,90.6809 210.319,101.181 199.5,111.5C 188.813,101.145 178.146,90.812 167.5,80.5 Z"/></g>
<g><path style="opacity:1" fill="#030303" d="M 114.5,196.5 C 91.6605,196.831 68.9939,196.497 46.5,195.5C 84.5331,156.8 122.866,118.467 161.5,80.5C 172.513,91.013 183.346,101.68 194,112.5C 194.5,113.5 195,114.5 195.5,115.5C 168.812,142.854 141.812,169.854 114.5,196.5 Z"/></g>
<g><path style="opacity:1" fill="#020202" d="M 352.5,195.5 C 330.006,196.497 307.339,196.831 284.5,196.5C 257.481,169.981 230.647,143.314 204,116.5C 203.333,115.5 203.333,114.5 204,113.5C 214.708,102.458 225.708,91.7908 237,81.5C 275.661,119.328 314.161,157.328 352.5,195.5 Z"/></g>
<g><path style="opacity:1" fill="#020202" d="M 198.5,118.5 C 199.239,118.369 199.906,118.536 200.5,119C 227.027,145.802 253.693,172.635 280.5,199.5C 253.833,226.833 226.833,253.833 199.5,280.5C 172.167,253.833 145.167,226.833 118.5,199.5C 145.188,172.479 171.854,145.479 198.5,118.5 Z"/></g>
<g><path style="opacity:1" fill="#313131" d="M 46.5,195.5 C 68.9939,196.497 91.6605,196.831 114.5,196.5C 91.6632,197.829 68.6632,197.829 45.5,196.5C 45.6236,195.893 45.9569,195.56 46.5,195.5 Z"/></g>
<g><path style="opacity:1" fill="#313131" d="M 352.5,195.5 C 353.043,195.56 353.376,195.893 353.5,196.5C 330.337,197.829 307.337,197.829 284.5,196.5C 307.339,196.831 330.006,196.497 352.5,195.5 Z"/></g>
<g><path style="opacity:1" fill="#4b4b4b" d="M 114.5,202.5 C 91.6605,202.169 68.9939,202.503 46.5,203.5C 45.9569,203.44 45.6236,203.107 45.5,202.5C 68.6632,201.171 91.6632,201.171 114.5,202.5 Z"/></g>
<g><path style="opacity:1" fill="#4b4b4b" d="M 284.5,202.5 C 307.337,201.171 330.337,201.171 353.5,202.5C 353.376,203.107 353.043,203.44 352.5,203.5C 330.006,202.503 307.339,202.169 284.5,202.5 Z"/></g>
<g><path style="opacity:1" fill="#030303" d="M 114.5,202.5 C 141.465,228.965 168.299,255.632 195,282.5C 195.667,283.5 195.667,284.5 195,285.5C 183.986,296.681 172.819,307.681 161.5,318.5C 123.029,280.695 84.6954,242.362 46.5,203.5C 68.9939,202.503 91.6605,202.169 114.5,202.5 Z"/></g>
<g><path style="opacity:1" fill="#020202" d="M 284.5,202.5 C 307.339,202.169 330.006,202.503 352.5,203.5C 314.926,240.907 277.593,278.407 240.5,316C 239.391,316.638 238.225,317.138 237,317.5C 225.708,307.209 214.708,296.542 204,285.5C 203.333,284.5 203.333,283.5 204,282.5C 230.701,255.632 257.535,228.965 284.5,202.5 Z"/></g>
<g><path style="opacity:1" fill="#040404" d="M 231.5,319.5 C 209.993,319.831 188.66,319.497 167.5,318.5C 178.146,308.188 188.813,297.855 199.5,287.5C 210.521,297.854 221.188,308.521 231.5,319.5 Z"/></g>
<g><path style="opacity:1" fill="#b9b9b9" d="M 167.5,318.5 C 188.66,319.497 209.993,319.831 231.5,319.5C 209.996,320.828 188.33,320.828 166.5,319.5C 166.624,318.893 166.957,318.56 167.5,318.5 Z"/></g>
</svg>
